<svg id="Layer_1" data-name="Layer 1" xmlns="http://www.w3.org/2000/svg" xmlns:xlink="http://www.w3.org/1999/xlink" viewBox="0 0 180 180"><defs><style>.cls-1{fill:url(#linear-gradient);}.cls-2{isolation:isolate;}.cls-3{fill:#fff;}.cls-4{fill:none;stroke:#000;stroke-miterlimit:10;stroke-width:2px;}.cls-5{fill:#fd1d1d;}.cls-6{fill:#f4c01c;}.cls-7{fill:#2d2de2;}.cls-8{fill:#33d9ff;}</style><linearGradient id="linear-gradient" x1="544.9" y1="1126.03" x2="544.9" y2="1314.13" gradientTransform="matrix(1, 0, 0, -1, 0, 2436)" gradientUnits="userSpaceOnUse"><stop offset="0" stop-color="#1cc2e0"/><stop offset="0.14" stop-color="#19b4dc"/><stop offset="0.4" stop-color="#1391d0"/><stop offset="0.75" stop-color="#0858be"/><stop offset="1" stop-color="#002bb0"/></linearGradient></defs><path class="cls-1" d="M594.9,1308h-100a40,40,0,0,1-40-40V1168a40,40,0,0,1,40-40h100a40,40,0,0,1,40,40v100A40,40,0,0,1,594.9,1308Z" transform="translate(-454.9 -1128)"/><g class="cls-2"><path class="cls-3" d="M481.92,1279v-47H469.24a5.41,5.41,0,0,1-5.4-5.41h0a5.41,5.41,0,0,1,5.4-5.41h37.62a5.41,5.41,0,0,1,5.41,5.41h0a5.41,5.41,0,0,1-5.41,5.41H494.23v47a6.15,6.15,0,0,1-6.16,6.15h0A6.15,6.15,0,0,1,481.92,1279Z" transform="translate(-454.9 -1128)"/><path class="cls-3" d="M559.81,1285.13h0a6.22,6.22,0,0,1-5.84-4.08l-3.82-10.44H525.78l-3.61,10.44a6.08,6.08,0,0,1-5.74,4.08h0a6.07,6.07,0,0,1-5.69-8.18l18.42-49.62a9.41,9.41,0,0,1,8.81-6.13h0a9.41,9.41,0,0,1,8.79,6l18.87,49.44A6.22,6.22,0,0,1,559.81,1285.13Zm-13.61-25.29-8.4-23.72-8.23,23.72Z" transform="translate(-454.9 -1128)"/><path class="cls-3" d="M575.38,1279v-47.87a9.91,9.91,0,0,1,9.91-9.91h9.84q11.22,0,14.63,1a16,16,0,0,1,8.78,6.26q3.53,4.82,3.53,12.45a21.66,21.66,0,0,1-2,9.9,17.41,17.41,0,0,1-11.56,9.33,66.92,66.92,0,0,1-12.76.92h-8v18a6.15,6.15,0,0,1-6.16,6.15h0A6.15,6.15,0,0,1,575.38,1279Zm12.31-47v18.14h6.73q7.27,0,9.73-1A8.18,8.18,0,0,0,608,1246a9,9,0,0,0,1.39-5,8.46,8.46,0,0,0-2-5.75,8.36,8.36,0,0,0-4.94-2.83,55.13,55.13,0,0,0-8.86-.44Z" transform="translate(-454.9 -1128)"/></g><g class="cls-2"><path class="cls-4" d="M481.51,1279v-47H468.84a5.41,5.41,0,0,1-5.41-5.41h0a5.41,5.41,0,0,1,5.41-5.4h37.62a5.4,5.4,0,0,1,5.4,5.4h0a5.41,5.41,0,0,1-5.4,5.41H493.82v47a6.15,6.15,0,0,1-6.15,6.15h0A6.15,6.15,0,0,1,481.51,1279Z" transform="translate(-454.9 -1128)"/><path class="cls-4" d="M559.41,1285.17h0a6.24,6.24,0,0,1-5.85-4.08l-3.82-10.44H525.38l-3.62,10.44a6.06,6.06,0,0,1-5.74,4.08h0a6.07,6.07,0,0,1-5.69-8.18l18.42-49.61a9.4,9.4,0,0,1,8.82-6.13h0a9.39,9.39,0,0,1,8.78,6l18.87,49.43A6.22,6.22,0,0,1,559.41,1285.17Zm-13.62-25.29-8.4-23.72-8.23,23.72Z" transform="translate(-454.9 -1128)"/><path class="cls-4" d="M575,1279v-48.7a9.08,9.08,0,0,1,9.07-9.07h10.68c7.49,0,12.36.32,14.64,1a16,16,0,0,1,8.77,6.25q3.52,4.83,3.53,12.45a21.66,21.66,0,0,1-2,9.9,17.42,17.42,0,0,1-11.55,9.33,67,67,0,0,1-12.77.92h-8v18a6.15,6.15,0,0,1-6.15,6.15h0A6.15,6.15,0,0,1,575,1279Zm12.31-47v18.14H594q7.28,0,9.72-1a8.18,8.18,0,0,0,3.85-3.14,8.87,8.87,0,0,0,1.39-5,8.51,8.51,0,0,0-2-5.76,8.41,8.41,0,0,0-4.95-2.83,56.32,56.32,0,0,0-8.85-.44Z" transform="translate(-454.9 -1128)"/></g><path class="cls-5" d="M482.2,1188.7a73.15,73.15,0,0,0-6.6-40.7c16-.4,29.2,12,44.1,17.8a14.1,14.1,0,0,0,4.9,1.2,12.13,12.13,0,0,0,5.9-1.6,26,26,0,0,0,13.8-18.8,77.16,77.16,0,0,0,15.6,22.4,64,64,0,0,1,55-17.7,38.85,38.85,0,0,0-15.9,30.4c0,1.5-.1,3.4-1.5,4.1a4.53,4.53,0,0,1-1.6.3c-38.2,1.9-76.5,3.1-114.7,3.6" transform="translate(-454.9 -1128)"/><path class="cls-6" d="M483.7,1188.7a75.13,75.13,0,0,0-6.8-41.5c-.4.8-.9,1.5-1.3,2.3,11.4-.2,21.3,6.1,30.8,11.4,2.4,1.4,4.9,2.7,7.4,3.9a40.52,40.52,0,0,0,8.1,3.3c5.7,1.4,11.4-1.9,15.4-5.7a27.07,27.07,0,0,0,8.4-15.4,25.12,25.12,0,0,0-2.7.4,79.53,79.53,0,0,0,15.9,22.7,1.45,1.45,0,0,0,2.1,0,63,63,0,0,1,40.7-18,62.07,62.07,0,0,1,12.9.7,25.12,25.12,0,0,0-.4-2.7,40.84,40.84,0,0,0-14.8,20.3,33,33,0,0,0-1.5,6.2c-.3,2.1-.3,4.1-.5,6.2-.1.9-.2,1.7-1.2,1.8-1.3.2-2.8.1-4.2.2-2.7.1-5.5.3-8.2.4-21.9,1-43.9,1.8-65.8,2.3-12.3.3-24.6.5-36.9.7a1.5,1.5,0,0,0,0,3q33.3-.45,66.6-1.5c11.1-.4,22.1-.8,33.2-1.3,2.8-.1,5.7-.3,8.5-.4,1.3-.1,2.7-.1,4-.2a24.66,24.66,0,0,0,3.9-.3c2.1-.5,2.9-2.4,3.1-4.4s.2-4.2.5-6.3a37.62,37.62,0,0,1,14.8-24.1c.9-.7,1-2.5-.4-2.7a66.46,66.46,0,0,0-45.8,9.5,67.23,67.23,0,0,0-10.7,8.6h2.1a77.08,77.08,0,0,1-15.4-22.1,1.48,1.48,0,0,0-2.7.4,25.3,25.3,0,0,1-6.7,13.2,24.71,24.71,0,0,1-6.1,4.5,10.64,10.64,0,0,1-8.7.9c-10.1-3.4-18.8-10.3-28.6-14.5a41.16,41.16,0,0,0-17.2-3.9,1.53,1.53,0,0,0-1.3,2.3,71.51,71.51,0,0,1,6.4,40c-.1,1.7,2.9,1.7,3.1-.2Z" transform="translate(-454.9 -1128)"/><path class="cls-3" d="M482.4,1197.5a49.62,49.62,0,0,0,.6,14.4q58.05.9,116-3a92.86,92.86,0,0,0-.6-12.9,4.38,4.38,0,0,0-.8-2.5c-1-1.1-2.7-.9-4.1-.7-25.7,3.9-51.9,3.7-77.9,3.4-11.5-.1-23-.2-34.5-.4" transform="translate(-454.9 -1128)"/><path class="cls-6" d="M480.9,1197.5a52.41,52.41,0,0,0,.7,14.8,1.5,1.5,0,0,0,1.4,1.1c30.2.5,60.5,0,90.7-1.5,8.5-.4,16.9-.9,25.4-1.5a1.54,1.54,0,0,0,1.5-1.5,99.43,99.43,0,0,0-.6-13.4,4.4,4.4,0,0,0-2.6-3.9c-1.6-.7-3.4-.3-5.1,0-8.8,1.3-17.8,2.1-26.7,2.6-17.9,1-35.9.7-53.8.5l-30.6-.3a1.5,1.5,0,0,0,0,3c17.2.2,34.5.4,51.7.5s34.4-.3,51.5-2.3l7-.9c1.1-.2,2.2-.4,3.3-.5.6,0,1.6-.1,2,.4.6.7.5,2.3.5,3.1.1,1.2.2,2.5.3,3.7.1,2.5.2,4.9.1,7.4l1.5-1.5c-30.2,2-60.4,3.1-90.6,3.1-8.5,0-16.9,0-25.4-.2a17.1,17.1,0,0,1,1.4,1.1,54.63,54.63,0,0,1-.6-14c.2-1.7-2.8-1.7-3,.2Z" transform="translate(-454.9 -1128)"/><path class="cls-3" d="M543.6,1166.2c-2.3,3.2-4.4,6.4-6.5,9.7-.1.2-.3.4-.2.7s.2.4.4.6c2.3,2.4,4.6,4.7,6.9,7.1,1.3-1.5,2.7-2.9,4-4.4a9.66,9.66,0,0,0,1.9-2.6,1.88,1.88,0,0,0,.2-.8,1.42,1.42,0,0,0-.2-.6,40.66,40.66,0,0,0-3.1-4.9c-.6-.8-1.2-1.6-1.9-2.4s-1.3-1.3-1.3-2.2" transform="translate(-454.9 -1128)"/><path class="cls-7" d="M543.2,1166c-1.2,1.7-2.4,3.4-3.5,5.1-.6.9-1.1,1.7-1.7,2.6a12.75,12.75,0,0,0-1.5,2.5,1.28,1.28,0,0,0,.5,1.4c.7.8,1.5,1.5,2.2,2.3,1.5,1.6,3,3.1,4.5,4.7a.45.45,0,0,0,.5,0c1.4-1.6,2.9-3.1,4.3-4.7.8-.9,2.4-2.4,1.8-3.8a29.45,29.45,0,0,0-3.1-5,18.39,18.39,0,0,0-1.7-2.2c-.6-.7-1.6-1.5-1.6-2.5a.4.4,0,0,0-.8,0c.1,1.4,1.4,2.4,2.2,3.5a30.83,30.83,0,0,1,3.2,4.8c.5.9,1.4,1.8.8,2.8a8.68,8.68,0,0,1-1.7,2.2c-1.4,1.5-2.8,3-4.1,4.5h.5c-1.3-1.3-2.6-2.7-3.9-4l-2-2a9.43,9.43,0,0,1-1-1c-.3-.7.1-1,.4-1.5q2.85-4.65,6-9c.7-.7,0-1.1-.3-.7Z" transform="translate(-454.9 -1128)"/><path class="cls-7" d="M542.9,1167.7c.1,1.3.3,2.6.5,3.8s.8,2.2,1,3.4a17.6,17.6,0,0,1-.2,4c-.2,1.5-.5,3-.8,4.4-.1.5.6.7.7.2.3-1.4.6-2.8.8-4.2a18,18,0,0,0,.3-4c-.1-1.2-.7-2.3-.9-3.5a30.34,30.34,0,0,1-.6-4.2.41.41,0,0,0-.8.1Z" transform="translate(-454.9 -1128)"/><path class="cls-7" d="M538,1177c3.6-1.1,7.7-2.3,11.1-.1.4.3.8-.4.4-.6-3.6-2.4-7.9-1.2-11.7,0-.4.1-.2.8.2.7Z" transform="translate(-454.9 -1128)"/><path class="cls-8" d="M537.2,1176.8c2.5-.5,5.1-1,7.6-1.4a29.66,29.66,0,0,1-.9-8.4,3.79,3.79,0,0,0-1.7,1.4c-1.9,2.5-3.8,5-4.8,8" transform="translate(-454.9 -1128)"/><path class="cls-7" d="M537.3,1177.2c2.5-.5,5.1-1,7.6-1.4.2,0,.3-.3.3-.5a29,29,0,0,1-.9-8.3.46.46,0,0,0-.5-.4,3.68,3.68,0,0,0-1.9,1.6c-.7.9-1.3,1.7-1.9,2.6a19.34,19.34,0,0,0-2.9,5.5c-.2.5.6.7.7.2a20.22,20.22,0,0,1,2.7-5c.5-.8,1.1-1.5,1.6-2.2s1.1-1.6,1.9-1.8a1.76,1.76,0,0,1-.5-.4,30.36,30.36,0,0,0,.9,8.5c.1-.2.2-.3.3-.5-2.5.5-5.1,1-7.6,1.4-.5.1-.3.8.2.7Z" transform="translate(-454.9 -1128)"/><path class="cls-8" d="M545.6,1175.4a7.17,7.17,0,0,1,2.9.6c.4.2.8.4.9.9v.6a4.42,4.42,0,0,1-.5,1.5,8.7,8.7,0,0,1-.9,1.1c-.9.9-1.4,2.1-2.4,2.9a4,4,0,0,1-1.8.7c.8-2.6.8-5.5,1.7-8.1" transform="translate(-454.9 -1128)"/><path class="cls-7" d="M545.6,1175.7a5.47,5.47,0,0,1,3.1.7c.5.4.3,1,.1,1.5a2.48,2.48,0,0,1-.8,1.4c-1.3,1.4-2.2,3.5-4.3,3.8a1.76,1.76,0,0,0,.4.5c.8-2.6.8-5.5,1.7-8.1.2-.5-.6-.7-.7-.2-.9,2.6-.9,5.5-1.7,8.1-.1.2.1.5.4.5a4.6,4.6,0,0,0,3.1-1.7,12.13,12.13,0,0,0,1-1.4c.4-.5.9-.9,1.3-1.4a4.84,4.84,0,0,0,.7-1.8,1.39,1.39,0,0,0-.4-1.5,3.29,3.29,0,0,0-1.6-.7,5,5,0,0,0-2.1-.2c-.7-.2-.7.5-.2.5Z" transform="translate(-454.9 -1128)"/><path class="cls-3" d="M583.7,1182.6c1.5-2,3-4,4.4-6.1a.5.5,0,0,0,0-.8c-1.4-1.6-2.8-3.1-4.3-4.7l-2.7,2.7a6.53,6.53,0,0,0-1.3,1.6.9.9,0,0,0-.1.5c0,.1.1.3.1.4.6,1.1,1.2,2.2,1.9,3.3.4.6.7,1.1,1.1,1.6a2.9,2.9,0,0,1,.9,1.5" transform="translate(-454.9 -1128)"/><path class="cls-7" d="M584,1182.9c.8-1,1.6-2.1,2.4-3.2a15.26,15.26,0,0,0,1.1-1.6,6.19,6.19,0,0,0,1.1-1.7,1,1,0,0,0-.3-1,19.2,19.2,0,0,0-1.4-1.5l-2.9-3.2a.45.45,0,0,0-.5,0c-.9,1-1.9,1.9-2.8,2.9-.6.6-1.7,1.6-1.4,2.6a11.94,11.94,0,0,0,.8,1.6c.3.6.7,1.1,1,1.7s.7,1.1,1.1,1.6.9.9.9,1.5a.4.4,0,0,0,.8,0c0-1-.9-1.7-1.4-2.5a34.47,34.47,0,0,1-2-3.2c-.1-.3-.3-.5-.4-.8a.76.76,0,0,1,.1-.9,6.89,6.89,0,0,1,1.1-1.3l2.7-2.7h-.5l2.4,2.7c.4.4.8.9,1.2,1.3.2.2.5.4.6.7s0,.4-.2.6c-1.3,2-2.7,3.9-4.2,5.8-.2.4.4,1,.7.6Z" transform="translate(-454.9 -1128)"/><path class="cls-7" d="M584.3,1181.6a21.3,21.3,0,0,0-.3-2.5c-.1-.8-.5-1.5-.6-2.3a7.72,7.72,0,0,1,.3-2.6l.6-2.7c.1-.5-.6-.7-.7-.2l-.6,2.7a20.61,20.61,0,0,0-.3,2.6,18.92,18.92,0,0,0,.5,2.3,24.77,24.77,0,0,1,.3,2.7.4.4,0,0,0,.8,0Z" transform="translate(-454.9 -1128)"/><path class="cls-7" d="M587.5,1175.7c-2.3.6-5,1.3-7.1-.2-.4-.3-.8.4-.4.6,2.3,1.6,5.2,1,7.6.3.5-.2.3-.9-.1-.7Z" transform="translate(-454.9 -1128)"/><path class="cls-8" d="M588.1,1175.9c-1.7.3-3.3.5-5,.8a19.69,19.69,0,0,1,.4,5.4,1.94,1.94,0,0,0,1.1-.9,18.09,18.09,0,0,0,3.3-5" transform="translate(-454.9 -1128)"/><path class="cls-7" d="M588,1175.5c-1.7.3-3.3.5-5,.8-.2,0-.3.3-.3.5a18.7,18.7,0,0,1,.4,5.3c0,.2.3.4.5.4a3,3,0,0,0,1.4-1.1l1.3-1.6a15.13,15.13,0,0,0,2-3.5c.2-.4-.5-.6-.7-.2a13.89,13.89,0,0,1-1.8,3.1l-1.1,1.4c-.3.4-.7,1-1.2,1.1a1.76,1.76,0,0,1,.5.4,20.13,20.13,0,0,0-.4-5.5c-.1.2-.2.3-.3.5,1.7-.3,3.3-.5,5-.8.3-.1.1-.8-.3-.8Z" transform="translate(-454.9 -1128)"/><path class="cls-8" d="M582.6,1176.7a4.33,4.33,0,0,1-1.9-.4,1.17,1.17,0,0,1-.6-.6v-.4a3.81,3.81,0,0,1,.3-1,4.35,4.35,0,0,1,.6-.7c.6-.6,1-1.3,1.6-1.8a2.84,2.84,0,0,1,1.2-.4c-.6,1.7-.6,3.5-1.3,5.2" transform="translate(-454.9 -1128)"/><path class="cls-7" d="M582.6,1176.3a3.2,3.2,0,0,1-1.9-.5c-.2-.2-.1-.5,0-.8a2.18,2.18,0,0,1,.5-.8,17.41,17.41,0,0,0,1.2-1.4,2,2,0,0,1,1.6-.9,1.76,1.76,0,0,0-.4-.5c-.6,1.7-.6,3.5-1.3,5.2-.2.5.6.6.7.2.6-1.7.7-3.5,1.3-5.2.1-.2-.1-.5-.4-.5a3.25,3.25,0,0,0-2.2,1.2c-.2.3-.5.6-.7.9a6.47,6.47,0,0,0-.8.9,2.1,2.1,0,0,0-.4,1.1,1.13,1.13,0,0,0,.3,1.1,2.22,2.22,0,0,0,1.1.5,5.9,5.9,0,0,0,1.4.2.35.35,0,1,0,0-.7Z" transform="translate(-454.9 -1128)"/><path class="cls-3" d="M499.5,1183.4a69,69,0,0,0,4.2-6.3c.1-.1.2-.3.1-.4a.76.76,0,0,0-.2-.4c-1.5-1.5-3-3-4.4-4.5-.9.9-1.7,1.9-2.6,2.8a5.5,5.5,0,0,0-1.3,1.7.9.9,0,0,0-.1.5.76.76,0,0,0,.2.4,34.47,34.47,0,0,0,2,3.2c.4.5.8,1.1,1.2,1.6s.8.7.9,1.4" transform="translate(-454.9 -1128)"/><path class="cls-7" d="M499.8,1183.6c.8-1.1,1.5-2.2,2.3-3.3.4-.6.7-1.1,1.1-1.7a14,14,0,0,0,1-1.6c.1-.4-.1-.7-.4-1.1-.5-.5-.9-1-1.4-1.5-1-1-2-2-2.9-3a.45.45,0,0,0-.5,0c-.9,1-1.9,2-2.8,3-.6.7-1.6,1.7-1.2,2.6a21.37,21.37,0,0,0,2,3.2c.4.5.7,1,1.1,1.5s1,.9,1,1.5a.4.4,0,0,0,.8,0c-.1-1-.9-1.6-1.4-2.3a21.12,21.12,0,0,1-2.1-3.1c-.3-.5-.8-1.1-.5-1.7s.7-.9,1-1.4c.9-1,1.8-1.9,2.7-2.9h-.5c.8.9,1.7,1.7,2.5,2.6a15.93,15.93,0,0,0,1.3,1.3c.2.2.5.4.6.6a.83.83,0,0,1-.3.8c-1.2,2-2.5,3.9-3.9,5.8-.4.7.2,1.1.5.7Z" transform="translate(-454.9 -1128)"/><path class="cls-7" d="M500,1182.4c-.1-.8-.2-1.7-.3-2.5a18,18,0,0,1-.6-2.2,11.4,11.4,0,0,1,.2-2.6,27.41,27.41,0,0,1,.5-2.8c.1-.5-.6-.7-.7-.2a25.58,25.58,0,0,0-.5,2.7,11,11,0,0,0-.2,2.6,9.77,9.77,0,0,0,.6,2.3,25.12,25.12,0,0,1,.4,2.7.31.31,0,1,0,.6,0Z" transform="translate(-454.9 -1128)"/><path class="cls-7" d="M503,1176.3c-2.3.7-4.9,1.5-7.1.1-.4-.3-.8.4-.4.6,2.3,1.5,5.2.8,7.6,0,.6-.1.4-.8-.1-.7Z" transform="translate(-454.9 -1128)"/><path class="cls-8" d="M503.6,1176.5l-4.9.9a16.61,16.61,0,0,1,.6,5.4,1.94,1.94,0,0,0,1.1-.9,17.88,17.88,0,0,0,3.1-5.1" transform="translate(-454.9 -1128)"/><path class="cls-7" d="M503.5,1176.2l-4.9.9c-.2,0-.3.3-.3.5a18.76,18.76,0,0,1,.6,5.3.46.46,0,0,0,.5.4,2.76,2.76,0,0,0,1.3-1.1c.4-.5.8-1.1,1.2-1.7a12.44,12.44,0,0,0,1.9-3.6c.2-.5-.6-.7-.7-.2a14.09,14.09,0,0,1-1.7,3.2,7.55,7.55,0,0,1-1.1,1.4c-.3.4-.6,1-1.2,1.1a1.76,1.76,0,0,1,.5.4,16.91,16.91,0,0,0-.6-5.5c-.1.2-.2.3-.3.5l4.9-.9c.6-.1.4-.8-.1-.7Z" transform="translate(-454.9 -1128)"/><path class="cls-8" d="M498.1,1177.5a4.33,4.33,0,0,1-1.9-.4,1,1,0,0,1-.6-.5v-.4a3.81,3.81,0,0,1,.3-1,4.35,4.35,0,0,1,.6-.7,6.9,6.9,0,0,1,1.6-1.8,2.45,2.45,0,0,1,1.2-.4c-.5,1.7-.5,3.5-1.1,5.2" transform="translate(-454.9 -1128)"/><path class="cls-7" d="M498.1,1177.1a3.08,3.08,0,0,1-1-.1,9.44,9.44,0,0,1-.9-.3c-.2-.2-.1-.6,0-.8a2.18,2.18,0,0,1,.5-.8c.8-.8,1.4-2.3,2.7-2.4a1.76,1.76,0,0,0-.4-.5c-.5,1.7-.5,3.5-1.1,5.2-.2.5.6.7.7.2.6-1.7.6-3.5,1.1-5.2.1-.2-.1-.5-.4-.5a3,3,0,0,0-2.1,1.2c-.2.3-.5.6-.7.9s-.6.6-.8.9a1.92,1.92,0,0,0-.4,1.2,1,1,0,0,0,.3,1.1,2.22,2.22,0,0,0,1.1.5,5.9,5.9,0,0,0,1.4.2.4.4,0,0,0,0-.8Z" transform="translate(-454.9 -1128)"/></svg>